<mxfile host="app.diagrams.net" modified="2024-05-14T00:26:34.927Z" agent="Mozilla/5.0 (Windows NT 10.0; Win64; x64) AppleWebKit/537.36 (KHTML, like Gecko) Chrome/124.0.0.0 Safari/537.36" etag="rP1Ket9S3K9RRxAHdIjJ" version="24.4.0" type="github">
  <diagram name="Page-1" id="QszaAQN94t1d5-ktzIOM">
    <mxGraphModel dx="880" dy="468" grid="1" gridSize="10" guides="1" tooltips="1" connect="1" arrows="1" fold="1" page="1" pageScale="1" pageWidth="850" pageHeight="1100" math="0" shadow="0">
      <root>
        <mxCell id="0" />
        <mxCell id="1" parent="0" />
        <mxCell id="e__qqiS7Y_eqqtaM0jpL-1" value="START" style="ellipse;whiteSpace=wrap;html=1;" vertex="1" parent="1">
          <mxGeometry x="40" width="120" height="80" as="geometry" />
        </mxCell>
        <mxCell id="e__qqiS7Y_eqqtaM0jpL-2" value="" style="endArrow=classic;html=1;rounded=0;exitX=0.5;exitY=1;exitDx=0;exitDy=0;" edge="1" parent="1" source="e__qqiS7Y_eqqtaM0jpL-1">
          <mxGeometry width="50" height="50" relative="1" as="geometry">
            <mxPoint x="400" y="170" as="sourcePoint" />
            <mxPoint x="100" y="120" as="targetPoint" />
          </mxGeometry>
        </mxCell>
        <mxCell id="e__qqiS7Y_eqqtaM0jpL-3" value="STRING S&lt;div&gt;STRING CONTADOR&lt;/div&gt;&lt;div&gt;INT F0&lt;/div&gt;&lt;div&gt;INT F2&lt;/div&gt;&lt;div&gt;INT F3&lt;/div&gt;" style="rounded=0;whiteSpace=wrap;html=1;" vertex="1" parent="1">
          <mxGeometry x="30" y="120" width="140" height="80" as="geometry" />
        </mxCell>
        <mxCell id="e__qqiS7Y_eqqtaM0jpL-4" value="" style="endArrow=classic;html=1;rounded=0;exitX=0.5;exitY=1;exitDx=0;exitDy=0;" edge="1" parent="1" source="e__qqiS7Y_eqqtaM0jpL-3">
          <mxGeometry width="50" height="50" relative="1" as="geometry">
            <mxPoint x="400" y="170" as="sourcePoint" />
            <mxPoint x="100" y="240" as="targetPoint" />
          </mxGeometry>
        </mxCell>
        <mxCell id="e__qqiS7Y_eqqtaM0jpL-5" value="CIN&lt;div&gt;S&lt;/div&gt;" style="shape=parallelogram;perimeter=parallelogramPerimeter;whiteSpace=wrap;html=1;fixedSize=1;" vertex="1" parent="1">
          <mxGeometry x="40" y="240" width="120" height="60" as="geometry" />
        </mxCell>
        <mxCell id="e__qqiS7Y_eqqtaM0jpL-6" value="" style="endArrow=classic;html=1;rounded=0;exitX=0.5;exitY=1;exitDx=0;exitDy=0;" edge="1" parent="1" source="e__qqiS7Y_eqqtaM0jpL-5">
          <mxGeometry width="50" height="50" relative="1" as="geometry">
            <mxPoint x="400" y="370" as="sourcePoint" />
            <mxPoint x="100" y="340" as="targetPoint" />
          </mxGeometry>
        </mxCell>
        <mxCell id="e__qqiS7Y_eqqtaM0jpL-7" value="FOR&lt;div&gt;0 &amp;lt; S.SIZE&lt;/div&gt;" style="rhombus;whiteSpace=wrap;html=1;" vertex="1" parent="1">
          <mxGeometry x="60" y="340" width="80" height="80" as="geometry" />
        </mxCell>
        <mxCell id="e__qqiS7Y_eqqtaM0jpL-8" value="" style="endArrow=none;html=1;rounded=0;exitX=0.5;exitY=1;exitDx=0;exitDy=0;" edge="1" parent="1" source="e__qqiS7Y_eqqtaM0jpL-7">
          <mxGeometry width="50" height="50" relative="1" as="geometry">
            <mxPoint x="400" y="370" as="sourcePoint" />
            <mxPoint x="100" y="470" as="targetPoint" />
          </mxGeometry>
        </mxCell>
        <mxCell id="e__qqiS7Y_eqqtaM0jpL-10" value="IF&lt;div&gt;S[] == &#39;f&#39;&lt;/div&gt;" style="rhombus;whiteSpace=wrap;html=1;" vertex="1" parent="1">
          <mxGeometry x="60" y="470" width="80" height="80" as="geometry" />
        </mxCell>
        <mxCell id="e__qqiS7Y_eqqtaM0jpL-11" value="" style="endArrow=classic;html=1;rounded=0;exitX=1;exitY=0.5;exitDx=0;exitDy=0;" edge="1" parent="1" source="e__qqiS7Y_eqqtaM0jpL-10">
          <mxGeometry width="50" height="50" relative="1" as="geometry">
            <mxPoint x="400" y="370" as="sourcePoint" />
            <mxPoint x="200" y="510" as="targetPoint" />
          </mxGeometry>
        </mxCell>
        <mxCell id="e__qqiS7Y_eqqtaM0jpL-12" value="CONTADOR += &#39;f&#39;" style="rounded=0;whiteSpace=wrap;html=1;" vertex="1" parent="1">
          <mxGeometry x="200" y="480" width="120" height="60" as="geometry" />
        </mxCell>
        <mxCell id="e__qqiS7Y_eqqtaM0jpL-13" value="" style="endArrow=none;html=1;rounded=0;exitX=1;exitY=0.5;exitDx=0;exitDy=0;" edge="1" parent="1" source="e__qqiS7Y_eqqtaM0jpL-7">
          <mxGeometry width="50" height="50" relative="1" as="geometry">
            <mxPoint x="400" y="410" as="sourcePoint" />
            <mxPoint x="440" y="380" as="targetPoint" />
          </mxGeometry>
        </mxCell>
        <mxCell id="e__qqiS7Y_eqqtaM0jpL-14" value="" style="endArrow=none;html=1;rounded=0;" edge="1" parent="1">
          <mxGeometry width="50" height="50" relative="1" as="geometry">
            <mxPoint x="440" y="600" as="sourcePoint" />
            <mxPoint x="440" y="380" as="targetPoint" />
          </mxGeometry>
        </mxCell>
        <mxCell id="e__qqiS7Y_eqqtaM0jpL-15" value="" style="endArrow=classic;html=1;rounded=0;exitX=0.5;exitY=1;exitDx=0;exitDy=0;" edge="1" parent="1" source="e__qqiS7Y_eqqtaM0jpL-10">
          <mxGeometry width="50" height="50" relative="1" as="geometry">
            <mxPoint x="400" y="510" as="sourcePoint" />
            <mxPoint x="100" y="640" as="targetPoint" />
          </mxGeometry>
        </mxCell>
        <mxCell id="e__qqiS7Y_eqqtaM0jpL-16" value="" style="endArrow=none;html=1;rounded=0;" edge="1" parent="1">
          <mxGeometry width="50" height="50" relative="1" as="geometry">
            <mxPoint x="100" y="600" as="sourcePoint" />
            <mxPoint x="440" y="600" as="targetPoint" />
          </mxGeometry>
        </mxCell>
        <mxCell id="e__qqiS7Y_eqqtaM0jpL-17" value="CONTADOR.SIZE&amp;nbsp;&lt;div&gt;==&lt;/div&gt;&lt;div&gt;0&lt;/div&gt;" style="rhombus;whiteSpace=wrap;html=1;" vertex="1" parent="1">
          <mxGeometry x="20" y="640" width="160" height="130" as="geometry" />
        </mxCell>
        <mxCell id="e__qqiS7Y_eqqtaM0jpL-18" value="" style="endArrow=classic;html=1;rounded=0;exitX=1;exitY=0.5;exitDx=0;exitDy=0;" edge="1" parent="1" source="e__qqiS7Y_eqqtaM0jpL-17">
          <mxGeometry width="50" height="50" relative="1" as="geometry">
            <mxPoint x="400" y="610" as="sourcePoint" />
            <mxPoint x="280" y="705" as="targetPoint" />
          </mxGeometry>
        </mxCell>
        <mxCell id="e__qqiS7Y_eqqtaM0jpL-19" value="COUT&lt;div&gt;-1&lt;/div&gt;" style="rounded=0;whiteSpace=wrap;html=1;" vertex="1" parent="1">
          <mxGeometry x="280" y="675" width="120" height="60" as="geometry" />
        </mxCell>
        <mxCell id="e__qqiS7Y_eqqtaM0jpL-20" value="" style="endArrow=classic;html=1;rounded=0;exitX=1;exitY=0.5;exitDx=0;exitDy=0;" edge="1" parent="1" source="e__qqiS7Y_eqqtaM0jpL-19">
          <mxGeometry width="50" height="50" relative="1" as="geometry">
            <mxPoint x="400" y="610" as="sourcePoint" />
            <mxPoint x="500" y="705" as="targetPoint" />
          </mxGeometry>
        </mxCell>
        <mxCell id="e__qqiS7Y_eqqtaM0jpL-22" value="" style="endArrow=classic;html=1;rounded=0;exitX=0.5;exitY=1;exitDx=0;exitDy=0;" edge="1" parent="1" source="e__qqiS7Y_eqqtaM0jpL-17">
          <mxGeometry width="50" height="50" relative="1" as="geometry">
            <mxPoint x="400" y="610" as="sourcePoint" />
            <mxPoint x="100" y="822" as="targetPoint" />
          </mxGeometry>
        </mxCell>
        <mxCell id="e__qqiS7Y_eqqtaM0jpL-23" value="CONTADOR.SIZE&amp;nbsp;&lt;div&gt;==&lt;/div&gt;&lt;div&gt;1&lt;/div&gt;" style="rhombus;whiteSpace=wrap;html=1;" vertex="1" parent="1">
          <mxGeometry x="20" y="820" width="160" height="130" as="geometry" />
        </mxCell>
        <mxCell id="e__qqiS7Y_eqqtaM0jpL-24" value="" style="endArrow=classic;html=1;rounded=0;exitX=1;exitY=0.5;exitDx=0;exitDy=0;" edge="1" parent="1" source="e__qqiS7Y_eqqtaM0jpL-23">
          <mxGeometry width="50" height="50" relative="1" as="geometry">
            <mxPoint x="400" y="790" as="sourcePoint" />
            <mxPoint x="280" y="885" as="targetPoint" />
          </mxGeometry>
        </mxCell>
        <mxCell id="e__qqiS7Y_eqqtaM0jpL-25" value="COUT&lt;div&gt;-2&lt;/div&gt;" style="rounded=0;whiteSpace=wrap;html=1;" vertex="1" parent="1">
          <mxGeometry x="280" y="855" width="120" height="60" as="geometry" />
        </mxCell>
        <mxCell id="e__qqiS7Y_eqqtaM0jpL-26" value="" style="endArrow=classic;html=1;rounded=0;exitX=1;exitY=0.5;exitDx=0;exitDy=0;" edge="1" parent="1" source="e__qqiS7Y_eqqtaM0jpL-25">
          <mxGeometry width="50" height="50" relative="1" as="geometry">
            <mxPoint x="400" y="790" as="sourcePoint" />
            <mxPoint x="500" y="885" as="targetPoint" />
          </mxGeometry>
        </mxCell>
        <mxCell id="e__qqiS7Y_eqqtaM0jpL-28" value="" style="endArrow=classic;html=1;rounded=0;exitX=0.5;exitY=1;exitDx=0;exitDy=0;" edge="1" parent="1" source="e__qqiS7Y_eqqtaM0jpL-23">
          <mxGeometry width="50" height="50" relative="1" as="geometry">
            <mxPoint x="400" y="790" as="sourcePoint" />
            <mxPoint x="100" y="1002" as="targetPoint" />
          </mxGeometry>
        </mxCell>
        <mxCell id="e__qqiS7Y_eqqtaM0jpL-29" value="CONTADOR.SIZE&amp;nbsp;&lt;div&gt;==&lt;/div&gt;&lt;div&gt;2&lt;/div&gt;" style="rhombus;whiteSpace=wrap;html=1;" vertex="1" parent="1">
          <mxGeometry x="20" y="1000" width="160" height="130" as="geometry" />
        </mxCell>
        <mxCell id="e__qqiS7Y_eqqtaM0jpL-30" value="" style="endArrow=classic;html=1;rounded=0;exitX=1;exitY=0.5;exitDx=0;exitDy=0;" edge="1" parent="1" source="e__qqiS7Y_eqqtaM0jpL-29">
          <mxGeometry width="50" height="50" relative="1" as="geometry">
            <mxPoint x="400" y="970" as="sourcePoint" />
            <mxPoint x="280" y="1065" as="targetPoint" />
          </mxGeometry>
        </mxCell>
        <mxCell id="e__qqiS7Y_eqqtaM0jpL-31" value="COUT&lt;div&gt;-3&lt;/div&gt;" style="rounded=0;whiteSpace=wrap;html=1;" vertex="1" parent="1">
          <mxGeometry x="280" y="1035" width="120" height="60" as="geometry" />
        </mxCell>
        <mxCell id="e__qqiS7Y_eqqtaM0jpL-32" value="" style="endArrow=classic;html=1;rounded=0;exitX=1;exitY=0.5;exitDx=0;exitDy=0;" edge="1" parent="1" source="e__qqiS7Y_eqqtaM0jpL-31">
          <mxGeometry width="50" height="50" relative="1" as="geometry">
            <mxPoint x="400" y="970" as="sourcePoint" />
            <mxPoint x="500" y="1065" as="targetPoint" />
          </mxGeometry>
        </mxCell>
        <mxCell id="e__qqiS7Y_eqqtaM0jpL-33" value="END" style="ellipse;whiteSpace=wrap;html=1;" vertex="1" parent="1">
          <mxGeometry x="40" y="1180" width="120" height="80" as="geometry" />
        </mxCell>
        <mxCell id="e__qqiS7Y_eqqtaM0jpL-34" value="" style="endArrow=classic;html=1;rounded=0;exitX=0.5;exitY=1;exitDx=0;exitDy=0;" edge="1" parent="1" source="e__qqiS7Y_eqqtaM0jpL-29">
          <mxGeometry width="50" height="50" relative="1" as="geometry">
            <mxPoint x="400" y="970" as="sourcePoint" />
            <mxPoint x="100" y="1182" as="targetPoint" />
          </mxGeometry>
        </mxCell>
        <mxCell id="e__qqiS7Y_eqqtaM0jpL-35" value="BREAK" style="rounded=0;whiteSpace=wrap;html=1;" vertex="1" parent="1">
          <mxGeometry x="500" y="1035" width="120" height="60" as="geometry" />
        </mxCell>
        <mxCell id="e__qqiS7Y_eqqtaM0jpL-36" value="BREAK" style="rounded=0;whiteSpace=wrap;html=1;" vertex="1" parent="1">
          <mxGeometry x="500" y="855" width="120" height="60" as="geometry" />
        </mxCell>
        <mxCell id="e__qqiS7Y_eqqtaM0jpL-37" value="BREAK" style="rounded=0;whiteSpace=wrap;html=1;" vertex="1" parent="1">
          <mxGeometry x="500" y="675" width="120" height="60" as="geometry" />
        </mxCell>
      </root>
    </mxGraphModel>
  </diagram>
</mxfile>
